<?xml version="1.0" encoding="UTF-8"?> <svg xmlns="http://www.w3.org/2000/svg" id="Слой_1" data-name="Слой 1" viewBox="0 0 49 49"> <defs> <style>.cls-1{fill:#2b2b2b;}.cls-2{fill:#fccc46;}.cls-3{fill:#ffd261;}</style> </defs> <title>Монтажная область 6 копия</title> <path class="cls-1" d="M20.44,18.57l-.78,4.52a1.15,1.15,0,0,0,1.65,1.24l4.21-2.1,4,2.08a1.15,1.15,0,0,0,1.68-1.21l-.78-4.5,3.27-3.2a1.15,1.15,0,0,0-.64-2l-4.56-.66-2-4.11a1.15,1.15,0,0,0-1-.63h0a1.15,1.15,0,0,0-1,.63h0l-2,4.11-4.56.66a1.15,1.15,0,0,0-.64,2ZM22.85,14a.63.63,0,0,0,.46-.34l2.1-4.21,2.1,4.21A.63.63,0,0,0,28,14l4.66.67-3.36,3.26a.63.63,0,0,0-.19.56l.79,4.61-4.08-2.12a.63.63,0,0,0-.58,0L21,23.09l.8-4.63a.63.63,0,0,0-.2-.55L18.2,14.66Z"></path> <path class="cls-1" d="M43.08,26.74a2.45,2.45,0,0,0-1.68-.84,2.4,2.4,0,0,0-1.77.61L33.8,31.75a2.79,2.79,0,0,0-.07-.34,2.62,2.62,0,0,0-1.4-1.68,8.21,8.21,0,0,0-4,0,9.85,9.85,0,0,1-2.58.16,5,5,0,0,1-1.11-.42,7.65,7.65,0,0,0-5.42-.55A8.9,8.9,0,0,0,15.32,31V29.48a.63.63,0,0,0-.63-.63H9.23a.63.63,0,0,0-.63.63v12.2a.63.63,0,0,0,.63.63h5.47a.63.63,0,0,0,.63-.63V40.8a38.34,38.34,0,0,0,7.48,1.09,24.66,24.66,0,0,0,8.76-1.64c4.08-1.77,10.81-9.41,11.36-10A2.49,2.49,0,0,0,43.08,26.74ZM14.06,41H9.86V30.11h4.21ZM42,29.3l-.06.06c-.07.08-7,8-10.94,9.73a23.28,23.28,0,0,1-8.25,1.53,38.79,38.79,0,0,1-7.33-1.09h-.15V32.81a8.54,8.54,0,0,1,4.15-2.69,6.37,6.37,0,0,1,4.63.47,6,6,0,0,0,1.4.49,10.31,10.31,0,0,0,3-.15,7.91,7.91,0,0,1,3.36,0,1.39,1.39,0,0,1,.66.87,1.61,1.61,0,0,1-.34,1.43c-1,1.29-6.79,3.21-9.19,3a.63.63,0,0,0-.1,1.26h.42c2.61,0,7.6-1.54,9.43-3.08l0,0,7.67-6.9a1.17,1.17,0,0,1,.84-.29,1.2,1.2,0,0,1,.84.42A1.23,1.23,0,0,1,42,29.3Z"></path> <path class="cls-2" d="M22.84,14a.63.63,0,0,0,.46-.34L25.4,9.4l2.1,4.21A.63.63,0,0,0,28,14l4.66.67-3.36,3.26a.63.63,0,0,0-.19.56L29.89,23l-4.08-2.12a.63.63,0,0,0-.58,0l-4.29,2.15.8-4.63a.63.63,0,0,0-.2-.55l-3.36-3.26Z"></path> <path class="cls-3" d="M14.06,41.06H9.86V30.13h4.21Z"></path> </svg> 