<?xml version="1.0" encoding="UTF-8"?> <svg xmlns="http://www.w3.org/2000/svg" id="Слой_1" data-name="Слой 1" viewBox="0 0 49 49"> <defs> <style>.cls-1{fill:#ffd261;stroke:#2b2b2b;stroke-miterlimit:10;}.cls-2{fill:#fff;}.cls-3{fill:#2b2b2b;}</style> </defs> <title>Монтажная область 6 копия 2</title> <path class="cls-1" d="M10.29,39.08m.94-.94A19.21,19.21,0,0,0,38.4,11Z"></path> <path class="cls-2" d="M24.5,29.66c-1.73,0-3.1-2-3.1-4.61s1.37-4.61,3.1-4.61,3.1,2,3.1,4.61S26.23,29.66,24.5,29.66Z"></path> <path class="cls-2" d="M16.48,29.66c-1.73,0-3.1-2-3.1-4.61s1.37-4.61,3.1-4.61,3.1,2,3.1,4.61S18.21,29.66,16.48,29.66Z"></path> <path class="cls-3" d="M24.5,44.33A19.88,19.88,0,1,1,44.38,24.45,19.89,19.89,0,0,1,24.5,44.33Zm0-38.47A18.59,18.59,0,1,0,43.09,24.45,18.63,18.63,0,0,0,24.5,5.86Z"></path> <path class="cls-3" d="M16.5,29.63c-2.06,0-3.68-2.4-3.68-5.48s1.63-5.48,3.68-5.48,3.68,2.4,3.68,5.48S18.6,29.63,16.5,29.63Zm0-9.68c-1.29,0-2.4,1.93-2.4,4.2s1.11,4.2,2.4,4.2,2.4-1.93,2.4-4.2S17.83,19.95,16.5,19.95Z"></path> <path class="cls-3" d="M24.47,29.63c-2.06,0-3.68-2.4-3.68-5.48s1.63-5.48,3.68-5.48,3.68,2.4,3.68,5.48S26.53,29.63,24.47,29.63Zm0-9.68c-1.29,0-2.4,1.93-2.4,4.2s1.11,4.2,2.4,4.2,2.4-1.93,2.4-4.2S25.8,19.95,24.47,19.95Z"></path> <path class="cls-3" d="M11.58,29.63a.66.66,0,0,1-.64-.64V20.85L9.44,22a.64.64,0,1,1-.77-1l2.53-2a.62.62,0,0,1,1,.47v9.47A.67.67,0,0,1,11.58,29.63Z"></path> <path class="cls-3" d="M31.72,29.54a.49.49,0,0,1-.34-.13.63.63,0,0,1-.17-.9l6.25-9.3a.65.65,0,1,1,1.07.73l-6.3,9.3A.61.61,0,0,1,31.72,29.54Z"></path> <path class="cls-3" d="M32.45,23.72a2.61,2.61,0,1,1,2.61-2.61A2.62,2.62,0,0,1,32.45,23.72Zm0-3.9a1.33,1.33,0,1,0,1.33,1.33A1.33,1.33,0,0,0,32.45,19.82Z"></path> <path class="cls-3" d="M37.89,29.07a2.61,2.61,0,1,1,2.61-2.61A2.6,2.6,0,0,1,37.89,29.07Zm0-3.9a1.33,1.33,0,1,0,1.33,1.33A1.31,1.31,0,0,0,37.89,25.17Z"></path> </svg> 