<?xml version="1.0" encoding="UTF-8"?> <svg xmlns="http://www.w3.org/2000/svg" id="Слой_1" data-name="Слой 1" viewBox="0 0 49 49"> <defs> <style>.cls-1{fill:#2b2b2b;}.cls-2{fill:#ffd261;}</style> </defs> <title>Монтажная область 9</title> <path class="cls-1" d="M31.23,40.5H12V19.77l11.29-9.71,11.21,9.45v6.62a.66.66,0,1,0,1.32,0v-5.5l3.76,3.18a.66.66,0,0,0,.86-1L23.75,8.67a.66.66,0,0,0-.86,0L6.53,22.74a.67.67,0,1,0,.88,1l3.3-2.85V41.16a.66.66,0,0,0,.66.66H31.23a.66.66,0,0,0,0-1.32Z"></path> <path class="cls-1" d="M40.88,34.75h0a5,5,0,0,1-3.63-1.52,5.41,5.41,0,0,1-1.54-3.45v-.22a.53.53,0,0,0,0-.18.56.56,0,0,0-.55-.48.55.55,0,0,0-.54.55v.32a5.31,5.31,0,0,1-5.39,4.93h-.13a.55.55,0,0,0,0,1.11h0a5.47,5.47,0,0,1,5.42,5.34.74.74,0,0,0,.62.66h0a.55.55,0,0,0,.55-.55,5.28,5.28,0,0,1,5.08-5.42h.14a.55.55,0,1,0,0-1.11Zm-5.82,3.94a6.64,6.64,0,0,0-3.32-3.36,6.44,6.44,0,0,0,3.42-3.21A6.46,6.46,0,0,0,36.45,34,6.22,6.22,0,0,0,38.3,35.3,6.39,6.39,0,0,0,35.06,38.69Z"></path> <path class="cls-1" d="M9.17,9.78h0a3.62,3.62,0,0,1,3.53,3.53.79.79,0,0,0,.71.72h0a.66.66,0,0,0,.65-.67h0a3.46,3.46,0,0,1,3.34-3.56h.11a.66.66,0,0,0,0-1.32h0a3.22,3.22,0,0,1-2.38-1,3.57,3.57,0,0,1-1-2.27V5.05a.66.66,0,0,0,0-.19.65.65,0,0,0-.65-.54.66.66,0,0,0-.65.67h0v.23A3.5,3.5,0,0,1,9.26,8.45H9.15a.66.66,0,1,0,0,1.32Zm4.32-2.34a4.85,4.85,0,0,0,.73,1,4.74,4.74,0,0,0,.91.73,4.81,4.81,0,0,0-1.71,1.81,5,5,0,0,0-.83-1.06,5,5,0,0,0-.92-.7A4.85,4.85,0,0,0,13.49,7.44Z"></path> <path class="cls-1" d="M19.5,20.7a.79.79,0,0,0-.79.79V30a.79.79,0,0,0,.79.79H28a.79.79,0,0,0,.79-.79V21.49A.79.79,0,0,0,28,20.7Zm7.67,8.46H20.29V22.29h6.87Z"></path> <path class="cls-2" d="M27.31,29.31H20.14V22.14h7.17Z"></path> <path class="cls-2" d="M35,38.65a6.64,6.64,0,0,0-3.32-3.36,6.44,6.44,0,0,0,3.42-3.21A6.46,6.46,0,0,0,36.41,34a6.22,6.22,0,0,0,1.85,1.29A6.39,6.39,0,0,0,35,38.65Z"></path> <path class="cls-2" d="M13.5,7.44a4.85,4.85,0,0,0,.73,1,4.74,4.74,0,0,0,.91.73,4.81,4.81,0,0,0-1.71,1.81,5,5,0,0,0-.83-1.06,5,5,0,0,0-.92-.7A4.85,4.85,0,0,0,13.5,7.44Z"></path> </svg> 