<?xml version="1.0" encoding="UTF-8"?> <svg xmlns="http://www.w3.org/2000/svg" xmlns:xlink="http://www.w3.org/1999/xlink" id="Слой_1" data-name="Слой 1" viewBox="0 0 49 49"> <defs> <style>.cls-1{fill:none;stroke:#2b2b2b;stroke-linejoin:round;stroke-width:1.3px;}.cls-2{fill:#ffd261;}.cls-3{clip-path:url(#clip-path);}.cls-4{fill:#2b2b2b;}</style> <clipPath id="clip-path"> <circle id="SVGID" class="cls-1" cx="25.16" cy="24.06" r="10.71"></circle> </clipPath> </defs> <title>Монтажная область 10</title> <path class="cls-2" d="M35.21,24.06A10.21,10.21,0,1,1,25,13.85,10.21,10.21,0,0,1,35.21,24.06Z"></path> <g class="cls-3"> <path class="cls-4" d="M38.21,26.75H20.13V21.36H38.21a.62.62,0,1,0,0-1.23H26.36V12.57a.62.62,0,0,0-1.23,0v7.56H5.88a.62.62,0,0,0,0,1.23h13v5.39h-13a.62.62,0,0,0,0,1.23H29.41v5.62a.62.62,0,0,0,1.23,0V28h7.56a.62.62,0,1,0,0-1.23Z"></path> </g> <circle id="SVGID-2" data-name="SVGID" class="cls-1" cx="25.16" cy="24.06" r="10.71"></circle> <path class="cls-4" d="M39.38,42H10.94a.62.62,0,0,1-.62-.62V7.5a.62.62,0,0,1,.62-.62H39.38A.62.62,0,0,1,40,7.5V41.4A.62.62,0,0,1,39.38,42ZM11.56,40.78H38.76V8.12H11.56Z"></path> <path d="M40,30l-4.18,4.18L34.4,32.73l-2.68,2.68,4.13,4.13,6.86-6.86Zm-6.53,5.4.89-.89L35.85,36,40,31.79l.89.89-5.07,5.07Z"></path> <path class="cls-2" d="M33.5,35.41l.89-.89L35.85,36,40,31.79l.89.89-5.07,5.07Z"></path> </svg> 