<?xml version="1.0" encoding="UTF-8"?> <svg xmlns="http://www.w3.org/2000/svg" id="Слой_1" data-name="Слой 1" viewBox="0 0 49 49"> <defs> <style>.cls-1{fill:#fccc46;}.cls-2{fill:#2b2b2b;}</style> </defs> <title>6</title> <polygon class="cls-1" points="21.62 43.42 10.75 37.01 10.75 25.11 21.54 31.09 21.62 43.42"></polygon> <path class="cls-2" d="M21.63,44.24,10,37.41V24.72l11.57-7.08,11,6.85V37.4ZM11.45,36.61l10.16,6,9.59-6V25.27l-9.58-6L11.45,25.51Z"></path> <polygon class="cls-2" points="22.32 43.42 20.92 43.42 20.92 31.36 10.42 25.73 11.08 24.5 22.32 30.52 22.32 43.42"></polygon> <line class="cls-1" x1="31.9" y1="24.88" x2="21.62" y2="30.94"></line> <rect class="cls-2" x="20.79" y="27.21" width="11.94" height="1.4" transform="translate(-10.47 17.47) rotate(-30.54)"></rect> <path class="cls-1" d="M32.92,44.08a7.84,7.84,0,1,1,7.84-7.84A7.88,7.88,0,0,1,32.92,44.08ZM29.38,32.42a5.37,5.37,0,0,0-1.68,3.82,5.22,5.22,0,0,0,5.22,5.22,6.3,6.3,0,0,0,1.31-.19Zm7.18,7.65a5.37,5.37,0,0,0,1.68-3.82A5.22,5.22,0,0,0,33,31a6.3,6.3,0,0,0-1.31.19Z"></path> <path class="cls-2" d="M32.92,29.15a7.18,7.18,0,1,1-7.18,7.18,7.13,7.13,0,0,1,7.18-7.18m3.45,11.94A5.89,5.89,0,0,0,33,30.37a5.64,5.64,0,0,0-2.24.47l5.6,10.26m-3.45,1a5.64,5.64,0,0,0,2.24-.47l-5.6-10.26a5.89,5.89,0,0,0,3.36,10.73m0-14.27a8.49,8.49,0,1,0,8.49,8.49,8.52,8.52,0,0,0-8.49-8.49Zm-.28,3.82h.28a4.58,4.58,0,0,1,4.57,4.57,4,4,0,0,1-.93,2.71l-3.92-7.28Zm.28,9.14a4.46,4.46,0,0,1-4.57-4.57,4,4,0,0,1,.93-2.71l4,7.28Z"></path> <path class="cls-2" d="M21.27,14.35h0a.65.65,0,0,1-.65-.65l0-9.36a.65.65,0,0,1,.65-.65h0a.65.65,0,0,1,.65.65l0,9.36A.65.65,0,0,1,21.27,14.35Z"></path> <path class="cls-2" d="M21.27,14.35a.65.65,0,0,1-.48-1.09l3.62-3.93a.65.65,0,1,1,1,.88l-3.62,3.93A.65.65,0,0,1,21.27,14.35Z"></path> <path class="cls-2" d="M21.27,14.35a.65.65,0,0,1-.48-.21l-3.58-3.89a.65.65,0,0,1,1-.88l3.58,3.89a.65.65,0,0,1-.48,1.09Z"></path> <path class="cls-2" d="M30.32,19.86a.65.65,0,0,1-.46-1.11l6.65-6.59a.65.65,0,1,1,.92.92l-6.65,6.59A.65.65,0,0,1,30.32,19.86Z"></path> <path class="cls-2" d="M30.32,19.86a.65.65,0,0,1,0-1.3l5.34-.22a.65.65,0,0,1,.05,1.3l-5.34.22Z"></path> <path class="cls-2" d="M30.32,19.86h0a.65.65,0,0,1-.62-.68l.22-5.29a.65.65,0,0,1,1.3.05L31,19.23A.65.65,0,0,1,30.32,19.86Z"></path> <path class="cls-2" d="M13.76,19.72a.65.65,0,0,1-.46-.19L6.7,12.88A.65.65,0,0,1,7.63,12l6.59,6.65a.65.65,0,0,1-.46,1.11Z"></path> <path class="cls-2" d="M13.76,19.72a.65.65,0,0,1-.65-.62l-.22-5.34a.65.65,0,0,1,1.3-.05L14.41,19a.65.65,0,0,1-.62.68Z"></path> <path class="cls-2" d="M13.76,19.72h0L8.45,19.5a.65.65,0,0,1-.62-.68.64.64,0,0,1,.68-.62l5.29.22a.65.65,0,0,1,0,1.3Z"></path> </svg> 