<?xml version="1.0" encoding="UTF-8"?> <svg xmlns="http://www.w3.org/2000/svg" id="Слой_1" data-name="Слой 1" viewBox="0 0 49 49"> <defs> <style>.cls-1{fill:#ffd261;}.cls-2{fill:#2b2b2b;}</style> </defs> <title>3</title> <path class="cls-1" d="M25.93,22.5h0a3.86,3.86,0,0,0,5.4-1,4.1,4.1,0,0,0,.7-2.2c0-1.7-2.5-5.8-3.9-7.9a19.5,19.5,0,0,0-1.4,2.3l1,2.9.1,3.6Z"></path> <path class="cls-2" d="M42.83,26.7a2.14,2.14,0,0,0-1.7-.8,3,3,0,0,0-1.8.6l-5.8,5.2a.37.37,0,0,0-.1-.3A2.65,2.65,0,0,0,32,29.7a9,9,0,0,0-4,0,11,11,0,0,1-2.6.2,3.58,3.58,0,0,1-1.1-.4,7.76,7.76,0,0,0-5.4-.5A9.24,9.24,0,0,0,15,31.1V29.6a.65.65,0,0,0-.6-.6H8.93a.65.65,0,0,0-.6.6V41.8a.65.65,0,0,0,.6.6h5.5a.65.65,0,0,0,.6-.6h0v-.9a38.81,38.81,0,0,0,7.5,1.1,26.34,26.34,0,0,0,8.8-1.6c4.1-1.8,10.8-9.4,11.4-10A2.88,2.88,0,0,0,42.83,26.7ZM13.83,41H9.63V30.1h4.2Zm27.9-11.7h0c-.1.1-7.1,8.1-11,9.8a23.05,23.05,0,0,1-8.3,1.5,35.76,35.76,0,0,1-7.3-1.1H15V32.8a8.69,8.69,0,0,1,4.1-2.7,6.15,6.15,0,0,1,4.6.5,5.78,5.78,0,0,0,1.4.5,15.06,15.06,0,0,0,3-.1,9.71,9.71,0,0,1,3.4,0,1.6,1.6,0,0,1,.7.9,1.74,1.74,0,0,1-.3,1.4c-1,1.3-6.8,3.2-9.2,3a.66.66,0,0,0-.7.6c0,.4.2.7.6.7H23c2.6,0,7.6-1.5,9.4-3.1h0l7.7-6.9a1.14,1.14,0,0,1,.8-.3,1.23,1.23,0,0,1,.8.4A1.12,1.12,0,0,1,41.73,29.3Z"></path> <path class="cls-1" d="M13.83,41.1H9.63v-11h4.2Z"></path> <path class="cls-2" d="M22.93,24.2a5.76,5.76,0,0,1-5.7-5.7c0-3,5.1-10.4,5.3-10.7a.49.49,0,0,1,.7-.1.1.1,0,0,1,.1.1c.2.3,5.3,7.7,5.3,10.7a5.63,5.63,0,0,1-5.7,5.7Zm0-15.2c-1.6,2.4-4.7,7.5-4.7,9.5A4.67,4.67,0,0,0,23,23a4.61,4.61,0,0,0,4.5-4.5C27.63,16.5,24.53,11.4,22.93,9Z"></path> <path class="cls-2" d="M28.13,24.2a4.68,4.68,0,0,1-2.8-.9.5.5,0,0,1,.6-.8h0a3.86,3.86,0,0,0,5.4-1,4.1,4.1,0,0,0,.7-2.2c0-1.7-2.5-5.8-3.9-7.9a19.5,19.5,0,0,0-1.4,2.3.49.49,0,0,1-.7.1.48.48,0,0,1-.2-.6c1-1.6,1.9-3,1.9-3a.5.5,0,0,1,.8,0c.5.7,4.5,6.5,4.5,9.1A4.91,4.91,0,0,1,28.13,24.2Z"></path> </svg> 