<?xml version="1.0" encoding="UTF-8"?> <svg xmlns="http://www.w3.org/2000/svg" id="Слой_1" data-name="Слой 1" viewBox="0 0 49 49"> <defs> <style>.cls-1{fill:#fccc46;}.cls-2{fill:#2b2b2b;}</style> </defs> <title>5</title> <path class="cls-1" d="M29.23,33.2a7.77,7.77,0,0,1-4.3,1.5c-7.6,0-8.1-7.2-6.9-11l2.8,2.7s-1.1-7.8,4.6-11.2c0,0,.6,5.7,3.5,9.6C31.13,27.5,31.63,31.2,29.23,33.2Z"></path> <path class="cls-2" d="M25,35.4c-2.93,0-5.17-1-6.56-2.9-1.89-2.57-1.89-6.38-1.06-9l.34-1.08L20,24.67c0-2.65.7-7.48,5-10.07L26,14l.12,1.09c0,.06.62,5.56,3.37,9.26,2.62,3.22,2.71,7.25.19,9.36h0A8.43,8.43,0,0,1,25,35.4ZM18.42,25a8.92,8.92,0,0,0,1.13,6.63A6.25,6.25,0,0,0,24.93,34a7.08,7.08,0,0,0,3.86-1.34c2.18-1.82,1.42-5.18-.4-7.42a21.89,21.89,0,0,1-3.49-8.83c-4.23,3.37-3.39,9.82-3.38,9.89l.28,2Z"></path> <path class="cls-1" d="M24.33,7.1a18.3,18.3,0,1,0,18.3,18.3A18.31,18.31,0,0,0,24.33,7.1Zm-15,18.3a14.88,14.88,0,0,1,6.4-12.3l14.4,26.2a15.62,15.62,0,0,1-5.7,1.1A15,15,0,0,1,9.33,25.4Zm23.6,12.3L18.53,11.5a15.62,15.62,0,0,1,5.7-1.1,15,15,0,0,1,15,15A14.55,14.55,0,0,1,32.93,37.7Z"></path> <path class="cls-2" d="M24.33,44.4a19,19,0,1,1,19-19A19,19,0,0,1,24.33,44.4Zm0-36.6a17.6,17.6,0,1,0,17.6,17.6A17.62,17.62,0,0,0,24.33,7.8Zm.1,33.3a15.71,15.71,0,0,1-9.1-28.58l.64-.44L31.13,39.66l-.74.29A16.38,16.38,0,0,1,24.43,41.1Zm-8.93-27A14.31,14.31,0,0,0,24.43,39.7a14.79,14.79,0,0,0,4.69-.78ZM32.69,38.72,17.54,11.14l.74-.29a16.38,16.38,0,0,1,6-1.15,15.72,15.72,0,0,1,15.7,15.7,15.27,15.27,0,0,1-6.6,12.88ZM19.54,11.88,33.16,36.66a13.88,13.88,0,0,0,5.37-11.25A14.32,14.32,0,0,0,24.23,11.1,14.79,14.79,0,0,0,19.54,11.88Z"></path> </svg> 