<?xml version="1.0" encoding="UTF-8"?> <svg xmlns="http://www.w3.org/2000/svg" id="Слой_1" data-name="Слой 1" viewBox="0 0 49 49"> <defs> <style>.cls-1{fill:#fccc46;}.cls-2{fill:#2b2b2b;}</style> </defs> <title>1</title> <rect class="cls-1" x="23.81" y="32.82" width="10.66" height="6.35"></rect> <rect class="cls-1" x="19.34" y="25.44" width="12.48" height="6.28"></rect> <rect class="cls-1" x="8.86" y="10.57" width="9.36" height="6.5"></rect> <path class="cls-2" d="M35.77,40.52H7.62V9.39H30v7.46h6v7.41h7.39V33H35.77ZM9,39.12H34.37V31.58H42V25.65H34.58V18.25h-6V10.79H9Z"></path> <rect class="cls-2" x="8.32" y="31.58" width="26.75" height="1.4"></rect> <rect class="cls-2" x="8.32" y="24.25" width="26.95" height="1.4"></rect> <rect class="cls-2" x="8.32" y="16.85" width="20.94" height="1.4"></rect> <rect class="cls-2" x="18.09" y="10.09" width="1.4" height="7.55"></rect> <rect class="cls-2" x="22.57" y="17.64" width="1.4" height="7.32"></rect> <rect class="cls-2" x="18.09" y="24.95" width="1.4" height="7.33"></rect> <rect class="cls-2" x="31.66" y="24.95" width="1.4" height="7.33"></rect> <rect class="cls-2" x="22.57" y="32.28" width="1.4" height="7.54"></rect> </svg> 