<?xml version="1.0" encoding="UTF-8"?> <svg xmlns="http://www.w3.org/2000/svg" id="Слой_1" data-name="Слой 1" viewBox="0 0 49 49"> <defs> <style>.cls-1{fill:#fccc46;}.cls-2{fill:#2b2b2b;}.cls-3{fill:#fff;}</style> </defs> <title>4</title> <path class="cls-1" d="M7.47,24.1v3.2a2,2,0,0,0,1.8,1.9h2.6V22l-2.4.1A2.33,2.33,0,0,0,7.47,24.1Z"></path> <path class="cls-2" d="M12.57,29.9H9.27a2.73,2.73,0,0,1-2.5-2.6V24.1a3,3,0,0,1,2.7-2.7l3.1-.13Zm-1.4-7.17L9.5,22.8a1.69,1.69,0,0,0-1.33,1.3v3.2a1.35,1.35,0,0,0,1.1,1.2h1.9Z"></path> <path class="cls-1" d="M14.57,21.4v8.2l6.7,3.4V17.6Z"></path> <path class="cls-2" d="M22,34.14,13.87,30V21L22,16.4Zm-6.7-5,5.3,2.69V18.8l-5.3,3Z"></path> <path class="cls-3" d="M41.17,9.1l-6,.1c0,2.7-2.3,2.7-2.3,5.4s2.3,2.7,2.3,5.4-2.3,2.7-2.3,5.4,2.3,2.7,2.3,5.4-2.3,2.7-2.3,5.4,2.3,2.7,2.3,5.4v.3l6-.1Z"></path> <path class="cls-2" d="M34.47,42.61v-1a3.05,3.05,0,0,0-1-2.25,4.43,4.43,0,0,1,0-6.31,3.06,3.06,0,0,0,0-4.49,4.43,4.43,0,0,1,0-6.31,3.06,3.06,0,0,0,0-4.49,4.43,4.43,0,0,1,0-6.31,3.05,3.05,0,0,0,1-2.25V8.51l7.4-.12v34.1ZM35.82,9.89a4.57,4.57,0,0,1-1.27,2.46,3.06,3.06,0,0,0,0,4.49,4.43,4.43,0,0,1,0,6.31,3.06,3.06,0,0,0,0,4.49,4.43,4.43,0,0,1,0,6.31,3.06,3.06,0,0,0,0,4.49,4.46,4.46,0,0,1,1.3,2.74l4.62-.08V9.81Z"></path> <path class="cls-2" d="M24.37,22.8A.7.7,0,0,1,24,21.53l4.9-3.5a.7.7,0,0,1,.81,1.14l-4.9,3.5A.7.7,0,0,1,24.37,22.8Z"></path> <path class="cls-2" d="M29.27,32.6a.7.7,0,0,1-.41-.13L24,29a.7.7,0,1,1,.81-1.14l4.9,3.5a.7.7,0,0,1-.41,1.27Z"></path> <path class="cls-2" d="M29.57,26.1h-5.4a.7.7,0,1,1,0-1.4h5.4a.7.7,0,0,1,0,1.4Z"></path> </svg> 