<svg width="95" height="169" viewBox="0 0 95 169" fill="none" xmlns="http://www.w3.org/2000/svg">
<path d="M2.5625 134V123.062L9.0625 122.125L38 43H56.6875L85.4375 122.125L91.9375 123.062V134H60.9375V123.062L67.25 121.938L63.25 109.438H31.25L27.25 121.938L33.5625 123.062V134H2.5625ZM35.5625 96H58.9375L48.3125 64.8125L47.4375 62.0625H47.0625L46.125 65L35.5625 96Z" fill="#282828"/>
<path d="M2.5 123L9 122H27L33.5 123V134H2.5V123Z" fill="#F8C52D" stroke="#F8C52D"/>
<path d="M61 123L67.5 122H85.5L92 123V134H61V123Z" fill="#F8C52D" stroke="#F8C52D"/>
</svg>
