<svg width="113" height="17" viewBox="0 0 113 17" fill="none" xmlns="http://www.w3.org/2000/svg">
<g clip-path="url(#clip0_1_2)">
<path d="M2 13.903V12.862L2.667 12.767L5.669 4.661H7.389L10.367 12.767L11.027 12.862V13.903H7.987V12.862L8.64 12.742L8.19 11.383H4.843L4.393 12.741L5.04 12.862V13.903H2ZM5.27 10.082H7.764L6.628 6.793L6.538 6.526H6.502L6.407 6.806L5.27 10.082ZM11.845 13.903V12.862L12.765 12.672V8.272L11.775 8.082V7.035H14.365L14.441 7.892L14.453 8.038C14.627 7.67 14.843 7.39 15.101 7.2C15.359 7.005 15.664 6.908 16.015 6.908C16.129 6.908 16.252 6.918 16.383 6.94C16.519 6.957 16.633 6.98 16.726 7.01L16.53 8.603L15.622 8.552C15.347 8.539 15.121 8.59 14.943 8.704C14.758 8.83097 14.6042 8.99814 14.493 9.193V12.672L15.413 12.862V13.903H11.846H11.845ZM21.265 14.036C20.837 14.036 20.469 13.954 20.16 13.789C19.8465 13.6112 19.5825 13.3579 19.392 13.052L19.265 13.903H17.773V5.238L16.777 5.048V4.001H19.493V7.783C19.697 7.499 19.946 7.283 20.243 7.135C20.5644 6.97716 20.919 6.89896 21.277 6.907C21.836 6.907 22.31 7.057 22.699 7.357C23.089 7.658 23.385 8.081 23.588 8.627C23.795 9.169 23.898 9.806 23.898 10.537V10.671C23.898 11.348 23.795 11.941 23.588 12.448C23.385 12.952 23.086 13.343 22.693 13.623C22.303 13.898 21.827 14.035 21.265 14.035V14.036ZM20.757 12.684C21.256 12.684 21.617 12.509 21.842 12.157C22.066 11.802 22.179 11.307 22.179 10.672V10.539C22.179 10.073 22.128 9.671 22.026 9.333C21.929 8.994 21.776 8.732 21.569 8.546C21.362 8.356 21.095 8.26 20.769 8.26C20.469 8.26 20.213 8.332 20.001 8.476C19.79 8.62 19.621 8.812 19.493 9.053V11.954C19.629 12.187 19.803 12.367 20.014 12.494C20.226 12.621 20.474 12.684 20.757 12.684ZM28.145 14.036C27.473 14.036 26.897 13.888 26.419 13.592C25.9404 13.2955 25.5569 12.8679 25.314 12.36C25.056 11.831 24.927 11.224 24.927 10.539V10.405C24.927 9.725 25.057 9.121 25.314 8.596C25.558 8.08753 25.9412 7.65862 26.419 7.359C26.897 7.059 27.469 6.908 28.133 6.908C28.801 6.908 29.375 7.058 29.853 7.358C30.3306 7.65366 30.712 8.08166 30.951 8.59C31.209 9.115 31.338 9.72 31.338 10.405V10.539C31.338 11.224 31.209 11.832 30.951 12.361C30.7119 12.869 30.3304 13.2966 29.853 13.592C29.375 13.888 28.806 14.036 28.145 14.036ZM28.145 12.71C28.48 12.71 28.755 12.619 28.971 12.437C29.191 12.255 29.354 12.001 29.459 11.675C29.565 11.345 29.618 10.966 29.618 10.539V10.405C29.618 9.982 29.565 9.608 29.459 9.282C29.354 8.956 29.191 8.702 28.971 8.52C28.751 8.334 28.471 8.24 28.133 8.24C27.794 8.24 27.515 8.334 27.295 8.52C27.079 8.702 26.918 8.956 26.812 9.282C26.707 9.608 26.654 9.982 26.654 10.405V10.539C26.654 10.97 26.707 11.349 26.812 11.675C26.918 12.001 27.081 12.255 27.302 12.437C27.522 12.619 27.802 12.71 28.145 12.71ZM31.968 13.903V12.862L32.894 12.672V5.238L31.898 5.048V4.001H34.621V12.671L35.548 12.862V13.903H31.968ZM36.163 13.903V12.862L37.083 12.672V8.272L36.087 8.082V7.035H38.81V12.672L39.73 12.862V13.903H36.163ZM37.02 5.53V4H38.81V5.53H37.02ZM43.044 14.03C42.434 14.03 41.961 13.86 41.622 13.522C41.288 13.179 41.121 12.638 41.121 11.897V8.26H40.15V7.035H41.12V5.359H42.841V7.035H44.155V8.26H42.842V11.897C42.842 12.177 42.902 12.377 43.02 12.5C43.0822 12.5621 43.1566 12.6106 43.2386 12.6423C43.3205 12.674 43.4082 12.6882 43.496 12.684C43.606 12.684 43.726 12.676 43.858 12.659C43.989 12.642 44.099 12.625 44.188 12.609L44.353 13.833C44.163 13.888 43.951 13.935 43.718 13.973C43.4956 14.0105 43.2695 14.0296 43.044 14.03ZM48.167 14.036C47.515 14.036 46.946 13.892 46.459 13.605C45.9806 13.3169 45.5918 12.9014 45.336 12.405C45.069 11.893 44.936 11.309 44.936 10.653V10.393C44.936 9.72 45.063 9.121 45.316 8.596C45.5537 8.09107 45.9277 7.66262 46.396 7.359C46.857 7.059 47.39 6.908 47.996 6.908C48.618 6.908 49.14 7.033 49.563 7.282C49.987 7.528 50.306 7.882 50.522 8.342C50.738 8.804 50.846 9.358 50.846 10.005V10.964H46.726L46.713 11.002C46.73 11.332 46.804 11.626 46.935 11.884C47.067 12.138 47.251 12.339 47.488 12.488C47.725 12.636 48.012 12.71 48.351 12.71C48.711 12.71 49.039 12.663 49.335 12.57C49.635 12.477 49.921 12.34 50.192 12.157L50.687 13.23C50.3731 13.4804 50.0191 13.6758 49.64 13.808C49.216 13.96 48.725 14.036 48.167 14.036ZM46.745 9.79H49.221V9.625C49.221 9.337 49.178 9.087 49.094 8.875C49.0182 8.67125 48.8804 8.49639 48.7 8.375C48.527 8.255 48.3 8.196 48.02 8.196C47.767 8.196 47.549 8.266 47.367 8.406C47.1769 8.55169 47.0281 8.74434 46.935 8.965C46.824 9.21672 46.7531 9.48431 46.725 9.758L46.745 9.79ZM58.583 14.036C57.9705 14.0416 57.3601 13.965 56.768 13.808C56.1903 13.638 55.6454 13.3719 55.156 13.021V10.837H56.489L56.692 12.183C56.899 12.343 57.168 12.473 57.498 12.57C57.8509 12.6698 58.2162 12.719 58.583 12.716C58.939 12.716 59.237 12.667 59.478 12.57C59.724 12.468 59.91 12.327 60.037 12.145C60.164 11.958 60.227 11.743 60.227 11.497C60.227 11.26 60.17 11.053 60.056 10.875C59.942 10.693 59.753 10.53 59.491 10.386C59.233 10.238 58.881 10.099 58.437 9.968C57.727 9.768 57.134 9.542 56.66 9.288C56.186 9.034 55.83 8.73 55.594 8.374C55.361 8.014 55.244 7.587 55.244 7.092C55.244 6.597 55.38 6.159 55.651 5.778C55.926 5.393 56.305 5.09 56.787 4.87C57.274 4.65 57.832 4.538 58.463 4.534C59.165 4.525 59.785 4.612 60.323 4.794C60.86 4.976 61.319 5.222 61.7 5.53V7.563H60.399L60.164 6.287C59.9578 6.1563 59.7329 6.05783 59.497 5.995C59.1869 5.91022 58.8664 5.86982 58.545 5.875C58.236 5.875 57.963 5.923 57.726 6.02C57.489 6.113 57.303 6.25 57.168 6.433C57.032 6.615 56.965 6.833 56.965 7.087C56.965 7.307 57.024 7.499 57.142 7.664C57.261 7.829 57.46 7.982 57.739 8.121C58.019 8.261 58.397 8.405 58.875 8.553C59.887 8.828 60.653 9.2 61.173 9.67C61.698 10.136 61.96 10.74 61.96 11.486C61.96 12.002 61.818 12.452 61.535 12.838C61.255 13.218 60.862 13.515 60.355 13.726C59.851 13.934 59.26 14.036 58.583 14.036ZM65.426 14.03C64.816 14.03 64.343 13.86 64.004 13.522C63.67 13.179 63.503 12.638 63.503 11.897V8.26H62.532V7.035H63.502V5.359H65.223V7.035H66.537V8.26H65.223V11.897C65.223 12.177 65.283 12.377 65.401 12.5C65.4632 12.5621 65.5376 12.6106 65.6196 12.6423C65.7015 12.674 65.7892 12.6882 65.877 12.684C65.987 12.684 66.107 12.676 66.239 12.659C66.369 12.642 66.479 12.625 66.569 12.609L66.734 13.833C66.544 13.888 66.332 13.935 66.099 13.973C65.8766 14.0105 65.6515 14.0296 65.426 14.03ZM67.336 13.903V12.862L68.257 12.672V5.238L67.254 5.048V4.001H69.977V7.917C70.197 7.6 70.468 7.352 70.79 7.174C71.1295 6.99315 71.5094 6.90161 71.894 6.908C72.597 6.908 73.149 7.136 73.551 7.593C73.957 8.046 74.161 8.749 74.161 9.701V12.671L75.081 12.862V13.903H71.582V12.862L72.432 12.672V9.688C72.432 9.176 72.333 8.81 72.135 8.59C71.935 8.37 71.644 8.26 71.259 8.26C70.988 8.26 70.742 8.32 70.522 8.438C70.302 8.552 70.12 8.717 69.976 8.933V12.672L70.827 12.862V13.903H67.336ZM76.16 13.903V12.348H77.88V13.903H76.16ZM82.184 13.903V12.862L83.18 12.672V5.899L82.184 5.709V4.66H86.266C87.328 4.66 88.157 4.871 88.754 5.295C89.35 5.714 89.649 6.345 89.649 7.186C89.649 7.609 89.53 7.988 89.293 8.322C89.061 8.657 88.73 8.906 88.303 9.072C88.671 9.152 88.98 9.296 89.23 9.503C89.48 9.71 89.668 9.963 89.795 10.258C89.926 10.555 89.992 10.878 89.992 11.23C89.992 12.106 89.702 12.77 89.122 13.223C88.546 13.676 87.738 13.902 86.697 13.902H82.184V13.903ZM84.907 12.576H86.697C87.205 12.576 87.592 12.462 87.859 12.234C88.129 12.005 88.265 11.671 88.265 11.231C88.265 10.918 88.215 10.653 88.113 10.437C88.02 10.222 87.8563 10.0452 87.649 9.936C87.442 9.821 87.175 9.764 86.849 9.764H84.907V12.576ZM84.907 8.546H86.387C86.873 8.546 87.249 8.438 87.516 8.222C87.786 8.006 87.922 7.697 87.922 7.295C87.922 6.851 87.782 6.523 87.503 6.311C87.224 6.1 86.811 5.994 86.266 5.994H84.907V8.546ZM93.654 14.036C92.922 14.036 92.349 13.806 91.934 13.344C91.524 12.879 91.318 12.157 91.318 11.18V8.273L90.557 8.083V7.034H93.045V11.192C93.045 11.733 93.134 12.118 93.311 12.347C93.493 12.571 93.771 12.683 94.143 12.683C94.452 12.683 94.721 12.622 94.949 12.499C95.178 12.376 95.362 12.201 95.501 11.972V8.272L94.663 8.082V7.034H97.228V12.671L98.047 12.861V13.903H95.704L95.59 13.002C95.3873 13.3239 95.1053 13.5884 94.771 13.77C94.4272 13.9519 94.0429 14.0434 93.654 14.036ZM98.714 13.903V12.862L99.634 12.672V8.272L98.637 8.082V7.035H101.36V12.672L102.281 12.862V13.903H98.714ZM102.858 13.903V12.862L103.785 12.672V5.238L102.788 5.048V4.001H105.512V12.671L106.438 12.862V13.903H102.858ZM109.745 14.036C109.2 14.036 108.73 13.896 108.336 13.617C107.943 13.338 107.64 12.947 107.429 12.443C107.221 11.935 107.118 11.345 107.118 10.672V10.539C107.118 9.815 107.221 9.18 107.429 8.634C107.64 8.089 107.943 7.665 108.336 7.364C108.73 7.06 109.197 6.908 109.739 6.908C110.128 6.908 110.467 6.984 110.755 7.136C111.042 7.285 111.29 7.498 111.497 7.778V5.238L110.501 5.048V4.001H113.224V12.671L114.144 12.862V13.903H111.732L111.599 13.071C111.401 13.372 111.133 13.6204 110.818 13.795C110.514 13.955 110.156 14.036 109.745 14.036ZM110.247 12.684C110.53 12.684 110.776 12.623 110.983 12.5C111.191 12.377 111.362 12.202 111.497 11.973V9.003C111.376 8.78138 111.202 8.59363 110.99 8.457C110.771 8.32257 110.517 8.25417 110.26 8.26C109.934 8.26 109.665 8.357 109.453 8.552C109.246 8.742 109.092 9.009 108.99 9.352C108.887 9.739 108.838 10.1385 108.844 10.539V10.672C108.844 11.294 108.954 11.785 109.174 12.145C109.394 12.505 109.752 12.684 110.247 12.684Z" fill="#2B2B2B"/>
<path d="M99.5 4H101.3V5.65H99.5V4Z" fill="#FED262"/>
</g>
<defs>
<clipPath id="clip0_1_2">
<rect width="113" height="17" fill="white"/>
</clipPath>
</defs>
</svg>
