<?xml version="1.0" encoding="UTF-8"?> <svg xmlns="http://www.w3.org/2000/svg" id="Слой_1" data-name="Слой 1" viewBox="0 0 49 49"> <defs> <style>.cls-1{fill:#2b2b2b;}.cls-2{fill:#fccc46;}</style> </defs> <title>Монтажная область 16</title> <path class="cls-1" d="M45.46,25.1l-6.62-3.68,4.68-3.8a.63.63,0,0,0-.08-1L30.85,9.29a.63.63,0,0,0-.78.12l-4.8,5.2L20,9.39a.63.63,0,0,0-.76-.1L6.7,16.59a.63.63,0,0,0-.07,1l5,3.89L5.49,25.11a.63.63,0,0,0,0,1.1c2.83,1.43,5,2.52,6.73,3.36v6.22a.63.63,0,0,0,.32.55l12.17,6.91.1,0h0l.16,0h.21l.09,0L38,36.37a.63.63,0,0,0,.32-.57V29.89a.63.63,0,0,0,0-.1c1.77-.87,4.1-2,7.17-3.57a.63.63,0,0,0,0-1.11ZM25.16,27c-1.3-.53-6.92-3.31-11-5.37l11.14-5.4,11,5.34C32.17,23.63,26.45,26.46,25.16,27Zm5.5-16.36L42,17.21l-4.39,3.57L26.28,15.32ZM8.15,17.22,19.5,10.62l4.71,4.71L12.78,20.87Zm4.58,5.1c6.59,3.32,9.68,4.8,11.15,5.45l-5.57,3.29c-1.26-.5-7-3.36-11.18-5.45Zm.79,7.88c4.46,2.17,4.74,2.17,4.86,2.17a.63.63,0,0,0,.32-.09l5.73-3.36v12.7l-10.9-6.19ZM37,35.43,25.69,41.64v-13l6.58,3.66a.63.63,0,0,0,.31.08c.12,0,.38,0,4.44-2Zm-4.37-4.37-6-3.36c1.54-.7,4.66-2.2,11.11-5.45L43.8,25.6C39.64,27.72,33.87,30.57,32.65,31.06Z"></path> <path class="cls-2" d="M25.16,27c-1.3-.53-6.92-3.31-11-5.37l11.14-5.4,11,5.34C32.17,23.63,26.45,26.46,25.16,27Z"></path> </svg> 