<?xml version="1.0" encoding="UTF-8"?> <svg xmlns="http://www.w3.org/2000/svg" id="Слой_1" data-name="Слой 1" viewBox="0 0 49 49"> <defs> <style>.cls-1{fill:#2b2b2b;}.cls-2{fill:#fccc46;}</style> </defs> <title>Монтажная область 15</title> <path class="cls-1" d="M25.69,34.09H19.12a.64.64,0,0,0-.64.64V42h-2.3V34.74a.64.64,0,0,0-.64-.64H7.37l6.36-6.37a.64.64,0,0,0-.46-1.1H9.39l6.51-6.51h0A.65.65,0,0,0,16,19.9h0a.64.64,0,0,0,0-.24h0a.64.64,0,0,0,0-.24h0a.64.64,0,0,0-.35-.35h0a.65.65,0,0,0-.24,0H11.7l5.68-5.68,3.35,3.38a.64.64,0,1,0,.92-.91L17.84,12a.64.64,0,0,0-.46-.19h0a.65.65,0,0,0-.46.19L9.69,19.2a.64.64,0,0,0,.46,1.1h3.74L7.37,26.82a.64.64,0,0,0,.46,1.1h3.89L5.36,34.28a.64.64,0,0,0,.46,1.1h9.08v7.25a.64.64,0,0,0,.64.64h3.59a.64.64,0,0,0,.64-.64V35.38h5.92a.64.64,0,0,0,0-1.29Z"></path> <path class="cls-1" d="M43.65,29.63l-6.44-6.5h3.93a.64.64,0,0,0,.46-1.1L35,15.38h3.77a.64.64,0,0,0,.46-1.1L31.94,6.91a.64.64,0,0,0-.46-.19h0a.65.65,0,0,0-.46.19l-7.36,7.37a.64.64,0,0,0,.46,1.1H28L21.3,22a.64.64,0,0,0,.46,1.1h4l-6.5,6.5a.64.64,0,0,0,.46,1.1H29v7.39a.64.64,0,0,0,.64.64h3.65a.64.64,0,0,0,.64-.64V30.73h9.29a.64.64,0,0,0,.46-1.1Zm-10.39-.19a.64.64,0,0,0-.64.64v7.39H30.25V30.09a.64.64,0,0,0-.64-.64H21.26l6.5-6.5a.64.64,0,0,0-.46-1.1h-4L30,15.19h0A.65.65,0,0,0,30.1,15h0a.64.64,0,0,0,0-.24h0a.64.64,0,0,0,0-.24h0a.65.65,0,0,0-.35-.35h0a.64.64,0,0,0-.24,0H25.67l5.81-5.81,5.75,5.81H33.46a.64.64,0,0,0-.64.64h0a.63.63,0,0,0,0,.22v0a.65.65,0,0,0,.12.19v0l6.58,6.65H35.66a.64.64,0,0,0-.46,1.1l6.44,6.5H33.25Z"></path> <path class="cls-2" d="M33.25,29.44a.64.64,0,0,0-.64.64v7.39H30.24V30.09a.64.64,0,0,0-.64-.64H21.25l6.5-6.5a.64.64,0,0,0-.46-1.1h-4L30,15.19h0A.65.65,0,0,0,30.1,15h0a.64.64,0,0,0,0-.24h0a.64.64,0,0,0,0-.24h0a.65.65,0,0,0-.35-.35h0a.64.64,0,0,0-.24,0H25.67l5.81-5.81,5.75,5.81H33.46a.64.64,0,0,0-.64.64h0a.63.63,0,0,0,0,.22v0a.65.65,0,0,0,.12.19v0l6.58,6.65H35.66a.64.64,0,0,0-.46,1.1l6.44,6.5H33.25Z"></path> </svg> 