<?xml version="1.0" encoding="UTF-8"?> <svg xmlns="http://www.w3.org/2000/svg" id="Слой_1" data-name="Слой 1" viewBox="0 0 49 49"> <defs> <style>.cls-1{fill:#2b2b2b;}.cls-2{fill:#fccc46;}</style> </defs> <title>Монтажная область 18</title> <path class="cls-1" d="M42.89,25.77H39.66V20.32a.61.61,0,0,0-.61-.61H29V14.29a.61.61,0,0,0-.61-.61H6.11a.61.61,0,0,0-.61.61V34.67a.61.61,0,0,0,.61.61h5.21a3.26,3.26,0,0,0,6.47,0H32.39a3.26,3.26,0,0,0,6.47,0h4a.61.61,0,0,0,.61-.61v-8.3A.61.61,0,0,0,42.89,25.77ZM14.55,36.91a2.06,2.06,0,1,1,2.05-2.06A2.06,2.06,0,0,1,14.55,36.91Zm0-5.33a3.27,3.27,0,0,0-3.17,2.48H6.71V14.89h21V34.07h-10A3.27,3.27,0,0,0,14.55,31.59Zm21.08,5.33a2.06,2.06,0,1,1,2.06-2.06A2.06,2.06,0,0,1,35.63,36.91Zm6.66-2.85H38.8a3.26,3.26,0,0,0-6.33,0H29V20.93h9.48v5.45a.61.61,0,0,0,.61.61h3.23v7.09Z"></path> <path class="cls-2" d="M14.56,31.6a3.27,3.27,0,0,0-3.17,2.48H6.72V14.91h21V34.08h-10A3.27,3.27,0,0,0,14.56,31.6Z"></path> </svg> 